<?xml version='1.0' encoding='UTF-8'?>
<svg viewBox="-4 -4 32 32" xmlns="http://www.w3.org/2000/svg" xmlns:xlink="http://www.w3.org/1999/xlink">
  <g id="Layer_1" transform="translate(-4, -4)" style="enable-background:new 0 0 32 32">
    <g id="Flag">
      <path d="M8, 4L5, 4C4.4, 4 4, 4.4 4, 5L4, 27C4, 27.5 4.4, 28 5, 28L7, 28C7.6, 28 8, 27.5 8, 27L8, 4z" fill="#727272" class="Black" />
    </g>
  </g>
  <g id="Layer_1" transform="translate(-4, -4)" style="enable-background:new 0 0 32 32">
    <g id="Flag">
      <polygon points="28,20 10,20 10,4 28,4 20,12  " fill="#D11C1C" class="Red" />
    </g>
  </g>
  <g id="Layer_1" transform="translate(10, 10)" style="enable-background:new 0 0 16 16">
    <g id="AddCircled">
      <circle cx="9" cy="9" r="7" fill="#039C23" class="Green" />
    </g>
  </g>
  <g id="Layer_1" transform="translate(10, 10)" style="enable-background:new 0 0 16 16">
    <g id="AddCircled">
      <polygon points="14,8 10,8 10,4 8,4 8,8 4,8 4,10 8,10 8,14 10,14 10,10 14,10  " fill="#FFFFFF" class="White" />
    </g>
  </g>
</svg>