<?xml version='1.0' encoding='UTF-8'?>
<svg viewBox="-4 -4 32 32" xmlns="http://www.w3.org/2000/svg" xmlns:xlink="http://www.w3.org/1999/xlink">
  <g id="Layer_1" transform="translate(-4, -4)" style="enable-background:new 0 0 32 32">
    <g id="Flag">
      <path d="M8, 4L5, 4C4.4, 4 4, 4.4 4, 5L4, 27C4, 27.5 4.4, 28 5, 28L7, 28C7.6, 28 8, 27.5 8, 27L8, 4z" fill="#727272" class="Black" />
    </g>
  </g>
  <g id="Layer_1" transform="translate(-4, -4)" style="enable-background:new 0 0 32 32">
    <g id="Flag">
      <polygon points="28,20 10,20 10,4 28,4 20,12  " fill="#D11C1C" class="Red" />
    </g>
  </g>
  <g id="Layer_1" transform="translate(12, 12)" style="enable-background:new 0 0 16 16">
    <g id="List_1_">
      <path d="M13, 16L3, 16C2.5, 16 2, 15.6 2, 15L2, 1C2, 0.4 2.5, 0 3, 0L13, 0C13.6, 0 14, 0.4 14, 1L14, 15C14, 15.6 13.6, 16 13, 16z" fill="#727272" class="Black" />
    </g>
  </g>
  <g id="Layer_1" transform="translate(12, 12)" style="enable-background:new 0 0 16 16">
    <g id="List_1_">
      <rect x="4" y="2" width="8" height="12" rx="0" ry="0" fill="#FFFFFF" class="White" />
    </g>
  </g>
  <g id="Layer_1" transform="translate(12, 12)" style="enable-background:new 0 0 16 16">
    <g id="List_1_">
      <rect x="6" y="4" width="4" height="2" rx="0" ry="0" fill="#727272" class="Black" />
    </g>
  </g>
  <g id="Layer_1" transform="translate(12, 12)" style="enable-background:new 0 0 16 16">
    <g id="List_1_">
      <rect x="6" y="8" width="4" height="2" rx="0" ry="0" fill="#727272" class="Black" />
    </g>
  </g>
</svg>